<mxfile host="app.diagrams.net" modified="2023-05-01T10:19:43.443Z" agent="Mozilla/5.0 (X11; Ubuntu; Linux x86_64; rv:109.0) Gecko/20100101 Firefox/112.0" version="21.2.3" etag="PNDN45C7pp4yysLSAW1C" type="github">
  <diagram name="Page-1" id="ZWk6yKLl2LWIWRV1ugC3">
    <mxGraphModel>
      <root>
        <mxCell id="0" />
        <mxCell id="1" parent="0" />
      </root>
    </mxGraphModel>
  </diagram>
</mxfile>
